<?xml version="1.0" encoding="UTF-8" standalone="no"?>
<!-- Created with Inkscape (http://www.inkscape.org/) -->

<svg
   width="89.69265mm"
   height="89.672661mm"
   viewBox="0 0 89.69265 89.672661"
   version="1.1"
   id="svg997"
   sodipodi:docname="logo.svg"
   inkscape:version="1.2.1 (9c6d41e410, 2022-07-14)"
   inkscape:export-filename="logo_alone2.svg"
   inkscape:export-xdpi="96"
   inkscape:export-ydpi="96"
   xmlns:inkscape="http://www.inkscape.org/namespaces/inkscape"
   xmlns:sodipodi="http://sodipodi.sourceforge.net/DTD/sodipodi-0.dtd"
   xmlns:xlink="http://www.w3.org/1999/xlink"
   xmlns="http://www.w3.org/2000/svg"
   xmlns:svg="http://www.w3.org/2000/svg">
  <sodipodi:namedview
     id="namedview999"
     pagecolor="#ffffff"
     bordercolor="#000000"
     borderopacity="0.25"
     inkscape:showpageshadow="2"
     inkscape:pageopacity="0.0"
     inkscape:pagecheckerboard="0"
     inkscape:deskcolor="#d1d1d1"
     inkscape:document-units="mm"
     showgrid="false"
     inkscape:zoom="0.84096521"
     inkscape:cx="72.5357"
     inkscape:cy="196.20312"
     inkscape:window-width="1269"
     inkscape:window-height="481"
     inkscape:window-x="109"
     inkscape:window-y="242"
     inkscape:window-maximized="0"
     inkscape:current-layer="layer1" />
  <defs
     id="defs994">
    <linearGradient
       inkscape:collect="always"
       id="linearGradient7949">
      <stop
         style="stop-color:#0000ff;stop-opacity:1"
         offset="0"
         id="stop7945" />
      <stop
         style="stop-color:#0000ff;stop-opacity:1;"
         offset="0.08851168"
         id="stop7953" />
      <stop
         style="stop-color:#ff0000;stop-opacity:1;"
         offset="0.08851168"
         id="stop7955" />
      <stop
         style="stop-color:#ff0000;stop-opacity:1;"
         offset="0.24091461"
         id="stop7961" />
      <stop
         style="stop-color:#ff00c3;stop-opacity:1;"
         offset="0.24091461"
         id="stop7963" />
      <stop
         style="stop-color:#ff00c3;stop-opacity:1;"
         offset="0.39294299"
         id="stop7965" />
      <stop
         style="stop-color:#00ff00;stop-opacity:1;"
         offset="0.39294299"
         id="stop9549" />
      <stop
         style="stop-color:#00ff00;stop-opacity:1;"
         offset="0.55276132"
         id="stop9551" />
      <stop
         style="stop-color:#00ffff;stop-opacity:1;"
         offset="0.55276132"
         id="stop7973" />
      <stop
         style="stop-color:#00ffff;stop-opacity:1;"
         offset="0.70330882"
         id="stop7975" />
      <stop
         style="stop-color:#ffff00;stop-opacity:0.99305558;"
         offset="0.70330882"
         id="stop7957" />
      <stop
         style="stop-color:#ffff00;stop-opacity:1;"
         offset="0.85235453"
         id="stop7967" />
      <stop
         style="stop-color:#ffffff;stop-opacity:1;"
         offset="0.85235453"
         id="stop7969" />
    </linearGradient>
    <linearGradient
       inkscape:collect="always"
       xlink:href="#linearGradient7949"
       id="linearGradient1606"
       gradientUnits="userSpaceOnUse"
       gradientTransform="matrix(0.28021345,0,0,0.33894543,78.676898,32.092643)"
       x1="140.52159"
       y1="93.566483"
       x2="92.912201"
       y2="93.566483" />
    <linearGradient
       inkscape:collect="always"
       xlink:href="#linearGradient7949"
       id="linearGradient1608"
       gradientUnits="userSpaceOnUse"
       gradientTransform="matrix(0.19793819,0,0,0.29589397,104.68775,39.459073)"
       x1="140.52159"
       y1="93.566483"
       x2="92.912201"
       y2="93.566483" />
    <linearGradient
       inkscape:collect="always"
       xlink:href="#linearGradient24328"
       id="linearGradient5994"
       gradientUnits="userSpaceOnUse"
       gradientTransform="matrix(0.68775842,0,0,0.69453705,-12.472372,9.9183859)"
       x1="146.01161"
       y1="126.11742"
       x2="203.03104"
       y2="98.258347" />
    <linearGradient
       inkscape:collect="always"
       id="linearGradient24328">
      <stop
         style="stop-color:#000000;stop-opacity:1;"
         offset="0"
         id="stop24324" />
      <stop
         style="stop-color:#502d16;stop-opacity:0;"
         offset="1"
         id="stop24326" />
    </linearGradient>
    <inkscape:path-effect
       effect="skeletal"
       id="path-effect5950"
       is_visible="true"
       lpeversion="1"
       pattern="M 0,4.9921385 C 0,2.2364781 2.2364781,0 4.9921385,0 7.747799,0 9.984277,2.2364781 9.984277,4.9921385 9.984277,7.747799 7.747799,9.984277 4.9921385,9.984277 2.2364781,9.984277 0,7.747799 0,4.9921385 Z"
       copytype="single_stretched"
       prop_scale="0.04"
       scale_y_rel="false"
       spacing="0"
       normal_offset="0"
       tang_offset="0"
       prop_units="false"
       vertical_pattern="false"
       hide_knot="false"
       fuse_tolerance="0" />
    <inkscape:path-effect
       effect="skeletal"
       id="path-effect5954"
       is_visible="true"
       lpeversion="1"
       pattern="M 0,4.9921382 C 0,2.2364779 2.2364779,0 4.9921382,0 c 2.7556604,0 4.9921383,2.2364779 4.9921383,4.9921382 0,2.7556604 -2.2364779,4.9921383 -4.9921383,4.9921383 C 2.2364779,9.9842765 0,7.7477986 0,4.9921382 Z"
       copytype="single_stretched"
       prop_scale="0.06"
       scale_y_rel="false"
       spacing="0"
       normal_offset="0"
       tang_offset="0"
       prop_units="false"
       vertical_pattern="false"
       hide_knot="false"
       fuse_tolerance="0" />
    <inkscape:path-effect
       effect="skeletal"
       id="path-effect5958"
       is_visible="true"
       lpeversion="1"
       pattern="M 0,4.9921382 C 0,2.2364779 2.2364779,0 4.9921382,0 c 2.7556604,0 4.9921383,2.2364779 4.9921383,4.9921382 0,2.7556604 -2.2364779,4.9921383 -4.9921383,4.9921383 C 2.2364779,9.9842765 0,7.7477986 0,4.9921382 Z"
       copytype="single_stretched"
       prop_scale="0.1"
       scale_y_rel="false"
       spacing="0"
       normal_offset="0"
       tang_offset="0"
       prop_units="false"
       vertical_pattern="false"
       hide_knot="false"
       fuse_tolerance="0" />
    <inkscape:path-effect
       effect="skeletal"
       id="path-effect5962"
       is_visible="true"
       lpeversion="1"
       pattern="M 0,4.9921385 C 0,2.2364781 2.2364781,0 4.9921385,0 7.747799,0 9.984277,2.2364781 9.984277,4.9921385 9.984277,7.747799 7.747799,9.984277 4.9921385,9.984277 2.2364781,9.984277 0,7.747799 0,4.9921385 Z"
       copytype="single_stretched"
       prop_scale="0.06"
       scale_y_rel="false"
       spacing="0"
       normal_offset="0"
       tang_offset="0"
       prop_units="false"
       vertical_pattern="false"
       hide_knot="false"
       fuse_tolerance="0" />
    <inkscape:path-effect
       effect="skeletal"
       id="path-effect5966"
       is_visible="true"
       lpeversion="1"
       pattern="M 0,4.9921385 C 0,2.2364781 2.2364781,0 4.9921385,0 7.747799,0 9.984277,2.2364781 9.984277,4.9921385 9.984277,7.747799 7.747799,9.984277 4.9921385,9.984277 2.2364781,9.984277 0,7.747799 0,4.9921385 Z"
       copytype="single_stretched"
       prop_scale="0.06"
       scale_y_rel="false"
       spacing="0"
       normal_offset="0"
       tang_offset="0"
       prop_units="false"
       vertical_pattern="false"
       hide_knot="false"
       fuse_tolerance="0" />
    <inkscape:path-effect
       effect="skeletal"
       id="path-effect5970"
       is_visible="true"
       lpeversion="1"
       pattern="M 0,4.9921385 C 0,2.2364781 2.2364781,0 4.9921385,0 7.747799,0 9.984277,2.2364781 9.984277,4.9921385 9.984277,7.747799 7.747799,9.984277 4.9921385,9.984277 2.2364781,9.984277 0,7.747799 0,4.9921385 Z"
       copytype="single_stretched"
       prop_scale="0.06"
       scale_y_rel="false"
       spacing="0"
       normal_offset="0"
       tang_offset="0"
       prop_units="false"
       vertical_pattern="false"
       hide_knot="false"
       fuse_tolerance="0" />
    <inkscape:path-effect
       effect="skeletal"
       id="path-effect5974"
       is_visible="true"
       lpeversion="1"
       pattern="M 0,4.9921385 C 0,2.2364781 2.2364781,0 4.9921385,0 7.747799,0 9.984277,2.2364781 9.984277,4.9921385 9.984277,7.747799 7.747799,9.984277 4.9921385,9.984277 2.2364781,9.984277 0,7.747799 0,4.9921385 Z"
       copytype="single_stretched"
       prop_scale="0.06"
       scale_y_rel="false"
       spacing="0"
       normal_offset="0"
       tang_offset="0"
       prop_units="false"
       vertical_pattern="false"
       hide_knot="false"
       fuse_tolerance="0" />
    <inkscape:path-effect
       effect="skeletal"
       id="path-effect5978"
       is_visible="true"
       lpeversion="1"
       pattern="M 0,4.9921385 C 0,2.2364781 2.2364781,0 4.9921385,0 7.747799,0 9.984277,2.2364781 9.984277,4.9921385 9.984277,7.747799 7.747799,9.984277 4.9921385,9.984277 2.2364781,9.984277 0,7.747799 0,4.9921385 Z"
       copytype="single_stretched"
       prop_scale="0.07"
       scale_y_rel="false"
       spacing="0"
       normal_offset="0"
       tang_offset="0"
       prop_units="false"
       vertical_pattern="false"
       hide_knot="false"
       fuse_tolerance="0" />
    <inkscape:path-effect
       effect="skeletal"
       id="path-effect5982"
       is_visible="true"
       lpeversion="1"
       pattern="M 0,4.9921385 C 0,2.2364781 2.2364781,0 4.9921385,0 7.747799,0 9.984277,2.2364781 9.984277,4.9921385 9.984277,7.747799 7.747799,9.984277 4.9921385,9.984277 2.2364781,9.984277 0,7.747799 0,4.9921385 Z"
       copytype="single_stretched"
       prop_scale="0.05"
       scale_y_rel="false"
       spacing="0"
       normal_offset="0"
       tang_offset="0"
       prop_units="false"
       vertical_pattern="false"
       hide_knot="false"
       fuse_tolerance="0" />
    <inkscape:path-effect
       effect="skeletal"
       id="path-effect5986"
       is_visible="true"
       lpeversion="1"
       pattern="M 0,4.9921385 C 0,2.2364781 2.2364781,0 4.9921385,0 7.747799,0 9.984277,2.2364781 9.984277,4.9921385 9.984277,7.747799 7.747799,9.984277 4.9921385,9.984277 2.2364781,9.984277 0,7.747799 0,4.9921385 Z"
       copytype="single_stretched"
       prop_scale="0.05"
       scale_y_rel="false"
       spacing="0"
       normal_offset="0"
       tang_offset="0"
       prop_units="false"
       vertical_pattern="false"
       hide_knot="false"
       fuse_tolerance="0" />
    <inkscape:path-effect
       effect="skeletal"
       id="path-effect5990"
       is_visible="true"
       lpeversion="1"
       pattern="M 0,4.9921385 C 0,2.2364781 2.2364781,0 4.9921385,0 7.747799,0 9.984277,2.2364781 9.984277,4.9921385 9.984277,7.747799 7.747799,9.984277 4.9921385,9.984277 2.2364781,9.984277 0,7.747799 0,4.9921385 Z"
       copytype="single_stretched"
       prop_scale="0.04"
       scale_y_rel="false"
       spacing="0"
       normal_offset="0"
       tang_offset="0"
       prop_units="false"
       vertical_pattern="false"
       hide_knot="false"
       fuse_tolerance="0" />
    <linearGradient
       inkscape:collect="always"
       xlink:href="#linearGradient24328"
       id="linearGradient5992"
       gradientUnits="userSpaceOnUse"
       gradientTransform="matrix(0.68775842,0,0,0.69453705,-12.472372,9.9183859)"
       x1="148.38315"
       y1="117.6063"
       x2="201.19858"
       y2="96.295868" />
  </defs>
  <g
     inkscape:label="Layer 1"
     inkscape:groupmode="layer"
     id="layer1"
     transform="translate(-64.64097,-31.930612)">
    <path
       id="path6000"
       style="fill:#b9a9bf;fill-opacity:1;stroke:#000000;stroke-width:4.76848;stroke-dasharray:none;stroke-dashoffset:0;stroke-opacity:1;paint-order:stroke markers fill;opacity:1"
       d="m 89.379678,34.315033 c -2.73897,0.005 -5.43586,0.12714 -8.07019,0.36063 -4.17403,0.37008 -9.96892,2.23984 -11.18637,7.56014 -3.11751,13.62378 -4.48582,32.95954 -1.13853,48.39602 1.22912,5.66832 3.88907,11.515307 7.7747,14.364797 15.05144,11.03766 34.318012,14.93919 49.486812,14.11472 4.03858,-0.21936 8.2339,-3.16499 10.80818,-7.30746 5.32132,-8.56291 12.48983,-24.539407 14.78905,-42.849607 0.69846,-5.56217 -2.52838,-11.76001 -6.06688,-14.87021 -16.00327,-14.06625 -37.22375,-19.80525 -56.396772,-19.76904 z"
       inkscape:export-filename="..\..\Escritorio\Logo-final.png"
       inkscape:export-xdpi="42.478397"
       inkscape:export-ydpi="42.478397" />
    <path
       style="fill:#ffffff;fill-opacity:1;stroke:none;stroke-width:0.202312px;stroke-linecap:butt;stroke-linejoin:miter;stroke-opacity:1"
       d="m 128.54864,61.047253 c -0.72478,-3.02712 -0.87821,-6.55837 -1.99623,-9.52328 -0.92182,-2.4446 -2.58881,-4.8364 -4.54609,-7.33227 -3.01655,-3.81509 -9.19548,-5.05697 -16.28465,-3.4714 -7.632122,1.38371 -12.690042,4.427 -15.918372,9.77233 l -3.46228,5.73652 c -0.97127,2.98243 -1.2535,6.02753 -1.03714,9.11792 -2.53698,-0.71999 -2.63139,3.15975 -2.89808,6.68104 l 2.38666,6.98008 c 1.50665,2.11028 3.75153,2.52733 4.74327,5.40328 0.15589,5.21189 0.25667,9.26078 -1.0702,14.47263 1.04681,3.644227 3.0289,7.649377 6.70493,10.417157 2.89175,3.14938 6.555112,5.01956 11.201062,6.53428 6.08143,0.38603 12.63775,-0.94287 15.28164,-3.20826 3.49494,-2.99459 2.3395,-7.79806 -0.11356,-13.848517 0.5206,-0.3575 -0.28177,-1.42997 0.28814,-1.60411 4.54121,-1.38764 5.52072,-14.28838 7.06046,-20.81459 0.22445,-1.30059 -0.15067,-2.48126 -0.34794,-3.69751 l 3.79599,-0.50097 c 1.00355,-3.3224 2.18183,-4.0409 0.94516,-8.77687 z"
       id="path6788"
       sodipodi:nodetypes="cscccccccccccscsccccc"
       inkscape:export-filename="..\..\Escritorio\prueba7.png"
       inkscape:export-xdpi="34.166145"
       inkscape:export-ydpi="34.166145" />
    <path
       style="fill:#ffffff;fill-opacity:1;stroke:#000000;stroke-width:0.505813;stroke-dasharray:none;stroke-opacity:1"
       d="m 87.667338,65.959793 0.27421,-0.51362 13.907542,-6.58047 c 0,0 0.50861,-0.5416 0.83279,-0.70466 1.6121,-0.43938 3.43077,-0.80808 5.03835,-0.75691 0.99936,0.0421 7.99476,0.25232 10.61805,2.523 0.83726,0.72473 1.91958,1.43333 3.12116,1.53604 2.56315,0.21904 4.70499,-0.73371 6.97802,-0.2295 1.7815,0.39518 3.87099,0.95087 4.89098,2.47794 0.64552,0.96647 0.35441,2.2637 0.28029,3.48582 -0.12451,2.05253 -0.86326,3.91496 -0.86326,3.91496 0,0 -0.4164,1.2194 -1.16588,1.38763 -3.13274,0.41362 -5.53042,-0.25509 -7.09536,-2.04774 -0.76784,-0.87954 -1.51923,-2.04651 -1.7337,-3.66177 -0.14691,-1.12828 -0.1628,-1.99621 -0.73819,-2.78868 -0.52437,-0.68118 -1.84585,-0.8126 -2.46651,-0.16407 -0.51577,0.53892 -0.73048,1.74564 -1.20206,2.61499 -0.47154,0.86937 -0.9148,1.93822 -1.75435,2.51507 -1.16895,0.80322 -1.74887,1.30355 -4.1223,1.00919 -2.37343,-0.29435 -6.95377,-1.13534 -7.8282,-2.64912 -0.87442,-1.51378 -1.12425,-5.17212 -1.12425,-5.76082 0,-0.58869 -0.79116,-0.71485 -0.79116,-0.71485 0,0 -14.323932,4.70957 -14.323932,5.08801 l -0.24982,0.42052"
       id="path5912"
       sodipodi:nodetypes="cccccssaasccsccszasssccc" />
    <path
       id="path1596"
       style="fill:url(#linearGradient1606);fill-opacity:1;stroke:none;stroke-width:0.16308;stroke-dasharray:1.30463, 0.32616, 0.16308, 0.32616;stroke-dashoffset:0;stroke-opacity:1;paint-order:stroke markers fill"
       d="m 108.53112,58.295473 c -0.44932,6.2e-4 -0.89174,0.0158 -1.32387,0.0447 -0.68473,0.0458 -1.63535,0.27756 -1.83507,0.93686 -0.51141,1.68828 -0.73588,4.08439 -0.18677,5.99729 0.20164,0.70244 0.63798,1.42701 1.27541,1.78011 2.4691,1.36781 5.62968,1.85129 8.11804,1.74913 0.66251,-0.0272 1.35073,-0.39221 1.77302,-0.90556 0.87295,-1.06112 2.04889,-3.04096 2.42608,-5.30999 0.11458,-0.68926 -0.41477,-1.45731 -0.99526,-1.84273 -2.62524,-1.74311 -6.10635,-2.45429 -9.25158,-2.4498 z" />
    <path
       style="fill:none;fill-opacity:1;stroke:#000000;stroke-width:0.366852;stroke-linecap:butt;stroke-linejoin:miter;stroke-dasharray:none;stroke-opacity:1"
       d="m 105.33583,59.296563 c -0.51121,1.68761 -0.73543,4.08248 -0.18655,5.99462 0.20155,0.70215 0.63759,1.42669 1.27477,1.77966 2.46812,1.36726 5.62757,1.85055 8.11495,1.74842 0.66225,-0.0272 1.3501,-0.3923 1.77224,-0.90543 0.8726,-1.06071 2.04813,-3.03961 2.42515,-5.30774 0.11453,-0.68899 -0.41468,-1.45682 -0.99494,-1.8421 -2.9991,-1.99133 -7.11543,-2.63547 -10.57121,-2.40409 -0.68445,0.0458 -1.63477,0.27762 -1.83441,0.93666 z"
       id="path1598"
       sodipodi:nodetypes="sssssssss" />
    <path
       id="path1600"
       style="fill:url(#linearGradient1608);fill-opacity:1;stroke:none;stroke-width:0.128064;stroke-dasharray:1.0245, 0.256124, 0.128064, 0.256124;stroke-dashoffset:0;stroke-opacity:1;paint-order:stroke markers fill"
       d="m 126.60951,61.986123 c -0.62411,-0.003 -1.28887,0.0314 -2.00342,0.0933 -0.70534,0.061 -1.42462,0.89531 -1.40308,1.60965 0.0419,1.38624 0.35702,3.02799 0.79711,4.4422 0.18642,0.5991 0.57503,1.13873 1.02025,1.5773 1.38954,1.36875 3.35825,2.02905 5.32531,1.96374 0.51533,-0.0171 1.22605,0.0556 1.49863,-0.38617 0.47828,-0.7752 1.08515,-3.90778 1.08435,-5.98771 -2e-4,-0.59984 -0.32723,-1.24255 -0.79737,-1.60936 -1.58504,-1.23664 -3.29285,-1.69611 -5.52178,-1.70299 z" />
    <path
       style="fill:none;fill-opacity:1;stroke:#000000;stroke-width:0.366852;stroke-linecap:butt;stroke-linejoin:miter;stroke-dasharray:none;stroke-opacity:1"
       d="m 123.18069,63.669093 c 0.0419,1.39094 0.35833,3.03839 0.79989,4.45739 0.18706,0.60116 0.57713,1.14266 1.02386,1.58271 1.39424,1.37341 3.3695,2.03582 5.34326,1.97029 0.51706,-0.0171 1.23028,0.0557 1.5038,-0.3876 0.4799,-0.77782 1.08864,-3.9208 1.08785,-6.00779 -2.4e-4,-0.60187 -0.32816,-1.24695 -0.7999,-1.615 -2.03574,-1.58828 -4.27331,-1.89903 -7.55096,-1.615 -0.70774,0.0614 -1.42944,0.89823 -1.4078,1.615 z"
       id="path1602"
       sodipodi:nodetypes="ssssssass" />
    <path
       style="opacity:0.72;fill:url(#linearGradient5994);fill-opacity:1;stroke:none;stroke-width:0.18449px;stroke-linecap:butt;stroke-linejoin:miter;stroke-opacity:1"
       d="m 90.368138,66.085333 0.63689,13.94047 c 0.0972,3.13665 1.20635,5.50674 2.09752,8.04198 2.69532,2.48405 4.74052,3.3267 6.85837,4.35278 2.974142,1.50802 6.049052,2.20192 9.125952,2.87968 l 7.60939,2.76135 7.5195,-2.27616 2.41534,-5.8867 1.67002,-9.87788 -1.82906,4.81849 -1.62709,3.37081 -1.71291,-0.96595 -1.19287,-3.12764 -4.77145,-0.48184 -0.21364,2.95763 -0.82018,1.94116 -4.93049,-0.8834 -11.769552,-7.54896 -6.44145,-8.99448 -0.95429,-5.51317 z"
       id="path5918"
       sodipodi:nodetypes="ccccccccccccccccccccc" />
    <path
       style="fill:#000000;stroke:none;stroke-width:0.264583px;stroke-linecap:butt;stroke-linejoin:miter;stroke-opacity:1"
       d="m 44.940362,73.140472 c -0.0037,-0.0054 0.01327,-0.02408 0.05067,-0.0571 0,0 0,0 0,0 0.03205,-0.02818 0.07918,-0.06629 0.141109,-0.11369 l 0,0 c 0.109129,-0.08352 0.270783,-0.200867 0.473353,-0.338415 l 0,0 c 0.248952,-0.16929 0.70387,-0.481502 1.168967,-0.687694 l 0,0 10e-7,0 0,0 c 0.686557,-0.302072 1.60472,-0.433568 2.581147,-0.725116 l 0,0 c 0.21313,-0.0655 0.450187,-0.218955 0.771499,-0.24105 l 0,0 c 0.754287,-0.01948 1.438087,0.493991 2.135753,0.490876 l 0,0 c 0.342976,0.01322 0.744873,-0.311573 1.297076,-0.262725 0.486135,0.06756 0.918382,0.318151 1.286951,0.630141 l 0,0 c 0.33567,0.278493 0.616006,0.640871 0.794365,1.061222 l 0,0 c 0.133485,0.282211 0.262894,0.652449 0.149152,1.044953 l 0,0 c -0.06875,0.23553 -0.267416,0.448075 -0.557326,0.499288 l 0,0 c -0.560678,0.0054 -0.853935,-0.436992 -1.139432,-0.597142 l 0,0 c -0.354207,-0.179683 -0.691537,-0.386093 -1.038465,-0.483539 -0.345042,-0.101298 -0.708649,-0.150408 -1.08642,-0.1811 -0.19812,-0.0161 -0.399074,-0.02705 -0.598892,-0.03789 -1.073322,-0.05442 -2.073272,-0.09337 -3.048348,0.07765 -0.595081,0.09765 -1.171586,0.573005 -1.897227,0.620017 -0.279891,-0.0053 -0.483531,-0.137025 -0.630534,-0.223542 -0.145689,-0.03666 -0.26837,-0.122811 -0.237039,-0.06735 -0.109369,0.0076 0.03351,0.225557 0.135203,0.339744 1.223442,0.303992 2.47535,-0.02385 3.597491,0.04019 0.465897,0.04171 0.869853,0.31537 1.335749,0.357084 0.583738,0.06207 1.164756,-0.152765 1.697236,-0.114924 0.677073,0.05393 1.165279,0.299192 1.560887,0.35175 0.558836,0.07537 0.894493,0.04186 0.928212,0.06206 0.002,0.0035 0.0015,0.0036 0.0015,0.0036 0,-2e-6 4.48e-4,3.2e-5 -0.0012,0.0037 -0.03162,0.02335 -0.354709,0.09999 -0.941555,0.06192 -0.420983,-0.0283 -0.945594,-0.252477 -1.559937,-0.272412 -0.477983,-0.01995 -1.02952,0.212181 -1.7073,0.168782 -0.473779,-0.03807 -0.900654,-0.305672 -1.331141,-0.32382 -1.08307,-0.04417 -2.345638,0.293935 -3.722259,-0.01655 -0.288921,-0.154289 -0.484291,-0.55546 -0.261995,-0.908588 0.252149,-0.184487 0.523739,-0.129428 0.674008,-0.01544 0.192466,0.08601 0.336989,0.202529 0.444397,0.178485 0.561232,-0.01548 1.107577,-0.490385 1.847765,-0.628313 1.028016,-0.182383 2.060295,-0.148843 3.136562,-0.09257 0.200591,0.0098 0.405397,0.02063 0.611101,0.03768 0.392017,0.03249 0.782003,0.08706 1.164867,0.197268 0.413085,0.123395 0.772647,0.339827 1.108004,0.514317 l 0,0 c 0.447898,0.216917 0.673908,0.648987 0.913024,0.561208 l 0,0 c 0.0887,0.0066 0.182733,-0.118715 0.237065,-0.238366 l 0,0 c 0.09278,-0.203442 -0.03028,-0.48582 -0.13456,-0.770797 l 0,0 c -0.149309,-0.361286 -0.391144,-0.67882 -0.68093,-0.924758 l 0,0 c -0.342079,-0.28387 -0.70714,-0.511808 -1.096226,-0.561447 l 0,0 c -0.340091,-0.07065 -0.74857,0.251002 -1.256328,0.247953 l 0,0 c -0.862195,-0.03287 -1.502531,-0.554199 -2.119916,-0.530484 l 0,0 c -0.210792,-0.0053 -0.435041,0.140762 -0.703801,0.21289 l 0,0 c -1.020498,0.278748 -1.914387,0.372786 -2.582398,0.6367 l 0,0 0,0 0,0 c -0.441094,0.172719 -0.925923,0.465807 -1.178609,0.611689 l 0,0 c -0.212655,0.122905 -0.380183,0.22187 -0.501156,0.290802 l 0,0 c -0.06758,0.03851 -0.120628,0.06774 -0.15861,0.0869 0,0 -10e-7,0 -10e-7,0 -0.0445,0.02233 -0.06789,0.03143 -0.07156,0.026 z"
       id="path5920"
       inkscape:path-effect="#path-effect5950"
       inkscape:original-d="m 44.939886,73.140799 c 0,0 1.20355,-0.826965 1.872496,-1.106474 0.821214,-0.343132 1.72597,-0.436502 2.581772,-0.680908 0.24737,-0.07065 0.480518,-0.218873 0.737651,-0.22697 0.729058,-0.02296 1.398547,0.496767 2.127834,0.51068 0.433916,0.0083 0.846547,-0.312945 1.276702,-0.255339 0.440149,0.05894 0.8513,0.31047 1.191588,0.595794 0.315961,0.264926 0.578236,0.612721 0.737648,0.99299 0.118418,0.28248 0.242183,0.618475 0.141856,0.907875 -0.05918,0.17071 -0.217759,0.347685 -0.397195,0.368827 -0.390096,0.04596 -0.676827,-0.399714 -1.026228,-0.579175 -0.35093,-0.180245 -0.694391,-0.388848 -1.073235,-0.498928 -0.558712,-0.162345 -1.14959,-0.197053 -1.73064,-0.226971 -1.029844,-0.05303 -2.076931,-0.09406 -3.092455,0.08511 -0.647921,0.114313 -1.215342,0.592255 -1.872496,0.624165 -0.339133,0.01647 -0.763113,-0.476849 -0.992989,-0.22697 -0.147819,0.160682 0.01859,0.500606 0.198599,0.624166 1.381096,0.326398 2.428854,-0.03203 3.659875,0.02837 0.457667,0.03136 0.8763,0.302229 1.333445,0.340452 0.567409,0.04744 1.133807,-0.174363 1.702268,-0.141853 0.529573,0.03029 1.032555,0.259813 1.560412,0.312081 0.310564,0.03075 0.936249,0 0.936249,0"
       class="UnoptimicedTransforms"
       sodipodi:nodetypes="caaaaaaaaaaaaaaaccaaac"
       transform="matrix(1.1534543,0,0,1.1648229,60.428498,-2.9675291)" />
    <path
       style="fill:#000000;stroke:#000000;stroke-width:0.411418;stroke-linecap:round;stroke-linejoin:round;stroke-dasharray:none;stroke-opacity:1;paint-order:stroke fill markers"
       d="m 24.808853,59.845793 c -0.03423,0.0013 -0.110245,-1.128388 -0.220315,-3.210137 0,0 0,-2e-6 0,-2e-6 -0.03815,-1.167685 -0.133679,-3.362675 0.176221,-5.302779 0.420512,-2.621102 1.300415,-5.607029 2.898312,-8.882884 1.59364,-3.269715 3.802804,-6.912847 6.856575,-10.202741 2.946055,-3.175282 6.611535,-6.446463 11.051143,-8.67709 4.346924,-2.17582 9.107266,-3.083968 14.237079,-3.937618 0.06425,-0.01069 0.686409,-0.113739 0.750661,-0.124431 4.638711,-0.776089 8.975497,-1.637956 13.374748,-0.861396 3.953896,0.708346 7.50687,2.523687 10.443301,4.636853 0,0 3e-6,3e-6 3e-6,3e-6 2.796579,2.01289 4.937975,4.640265 6.572434,7.160827 1.912098,2.950116 3.063742,6.352668 3.900107,8.994448 1.482716,4.679897 2.062068,9.05029 2.296394,11.150763 0.04286,1.601969 0.05233,2.475333 0.02429,2.509516 0,0 0,0 0,0 -0.0018,7.1e-4 -0.0018,5.43e-4 -0.0018,5.43e-4 10e-7,0 -9e-6,1.66e-4 -0.0018,-4.63e-4 0,0 0,0 0,0 -0.03095,-0.03284 -0.09737,-0.90454 -0.193332,-2.49477 -0.300698,-2.062017 -0.97353,-6.456819 -2.491278,-11.046641 -0.867209,-2.620996 -2.041503,-5.987492 -3.934269,-8.850524 -1.634362,-2.473582 -3.75229,-5.043274 -6.484858,-6.984572 -10e-7,10e-7 -3e-6,-2e-6 -3e-6,-2e-6 -2.900263,-2.060963 -6.386367,-3.829623 -10.230755,-4.503254 -4.258439,-0.757719 -8.518591,0.111422 -13.175082,0.879577 0.36722,-0.06129 -1.117241,0.186619 -0.750021,0.125326 -5.123517,0.858292 -9.822736,1.738733 -14.076399,3.864625 -4.356888,2.169077 -7.987939,5.386657 -10.928635,8.515016 -3.027262,3.221788 -5.240684,6.810604 -6.853589,10.036065 -1.611838,3.225755 -2.518749,6.158871 -2.97747,8.744467 -0.33413,1.874739 -0.289518,4.090779 -0.286466,5.245681 0,0 0,2e-6 0,2e-6 0.04872,2.082123 0.05896,3.214287 0.02473,3.215592 z"
       id="path5924"
       sodipodi:nodetypes="caaaaaaaaaac"
       transform="matrix(0.59342968,0,0,0.59927863,70.681938,28.879196)"
       inkscape:original-d="m 24.808862,59.845939 c 0,0 -0.362288,-5.697425 0.10881,-8.487243 0.515637,-3.05358 1.567009,-6.036822 2.937891,-8.813675 1.803564,-3.653292 4.07431,-7.141704 6.855082,-10.119403 3.174296,-3.399092 6.830358,-6.515601 10.989889,-8.596053 4.603363,-2.302441 9.829617,-3.182463 14.90708,-4.026 4.374518,-0.726754 8.908477,-1.644288 13.274918,-0.870486 3.709596,0.657398 7.272625,2.37854 10.337025,4.570053 2.609739,1.866361 4.771547,4.388184 6.528649,7.072702 1.778861,2.717761 2.916845,5.832198 3.917188,8.922486 1.165563,3.600691 1.910942,7.344993 2.393836,11.098702 0.106541,0.828179 0.108813,2.502646 0.108813,2.502646"
       inkscape:path-effect="#path-effect5954"
       class="UnoptimicedTransforms" />
    <path
       style="fill:#000000;stroke:#000000;stroke-width:0.46272;stroke-linecap:butt;stroke-linejoin:miter;stroke-dasharray:none;stroke-opacity:1"
       d="m 97.277161,74.20944 c 0.0078,-0.0049 0.02805,0.01147 0.06271,0.0493 0.02936,0.03221 0.06834,0.08018 0.116227,0.143976 0,0 0,0 0,0 l 0,1e-6 c 0.08311,0.110735 0.19955,0.27789 0.332212,0.489818 l 0,0 c 0.15753,0.250196 0.465808,0.730229 0.605138,1.242608 l 0,0 c 0.306679,1.151686 0.302138,2.357089 0.09553,4.196821 l -10e-7,-10e-7 0,2e-6 0,0 c -0.295473,2.662709 -1.607223,5.88468 -2.385799,9.728779 l 0,0 c -0.683508,3.368717 -0.607207,7.387756 -1.857759,11.596474 l -10e-7,0 -10e-7,0 0,0 c -0.938164,3.20576 -1.758805,7.58806 -4.687759,10.35491 l 0,0 c -2.58847,2.36392 -6.179897,3.33165 -9.822471,3.53332 -1.530332,0.0856 -3.046318,-0.0351 -4.560074,-0.29752 -3.430612,-0.5947 -6.871493,-1.94011 -9.935175,-2.97819 -4.949419,-1.66362 -9.810856,-2.86505 -14.146424,-4.47992 -5.295574,-1.965 -9.369592,-4.38317 -12.332088,-7.59682 -2.297624,-2.524068 -3.208437,-6.310759 -3.72949,-8.264803 -0.763536,-3.511171 -1.156803,-5.495506 -1.084185,-5.53209 0,0 0,0 0,0 0,0 0,0 0,0 0,0 0,0 0,0 0,0 0,0 0,0 0.0012,-3.68e-4 0.0012,-3.36e-4 0.0012,-3.34e-4 -1.1e-5,2e-6 -2.6e-5,-2.5e-5 0.0012,-1.73e-4 0,0 0,0 0,0 0,0 0,0 0,0 0,0 0,0 0,0 0,0 10e-7,0 10e-7,0 0.08237,0.0046 0.622015,1.957997 1.510457,5.41986 0.600178,1.921872 1.615,5.653118 3.798447,7.911108 2.922827,3.065992 6.903158,5.329812 12.139442,7.232642 4.290515,1.55308 9.139659,2.71594 14.15208,4.38059 3.098269,1.02068 6.511591,2.35381 9.794985,2.93258 1.453307,0.25618 2.892216,0.37097 4.330416,0.27981 3.511635,-0.22438 6.895973,-1.08404 9.231474,-3.2472 l 0,0 c 2.67845,-2.38892 3.472118,-6.65034 4.500718,-9.90271 l 0,0 0,-1e-5 0,0 c 1.250941,-4.005579 1.232645,-8.043597 1.995591,-11.489958 l 0,0 c 0.875208,-3.947835 2.248573,-7.060182 2.619499,-9.639541 l 0,0 0,-2e-6 0,0 c 0.260496,-1.833355 0.327943,-2.938376 0.09553,-4.072798 l 0,0 c -0.08896,-0.452749 -0.358212,-0.962406 -0.484753,-1.221557 l 0,-10e-7 c -0.08888,-0.181133 -0.172558,-0.343422 -0.261438,-0.524556 l 0,0 c 0,0 0,0 0,0 -0.0349,-0.07129 -0.06096,-0.127051 -0.07738,-0.167185 -0.01921,-0.04733 -0.02586,-0.07233 -0.01812,-0.07723 z"
       id="path5926"
       sodipodi:nodetypes="caaaaaaaac"
       transform="matrix(0.59342968,0,0,0.59927863,70.681938,28.879196)"
       inkscape:original-d="m 97.276853,74.208965 c 0,0 0.811595,1.248195 0.979297,1.958593 0.316662,1.3414 0.173814,2.767544 0,4.134811 -0.420465,3.307485 -1.810428,6.422707 -2.502649,9.68416 -0.809913,3.815966 -0.790244,7.811454 -1.926676,11.543221 -1.080025,3.54654 -1.865061,7.61962 -4.594239,10.12881 -2.481384,2.28137 -6.162192,3.18988 -9.526972,3.39026 -4.88249,0.29075 -9.671256,-1.69412 -14.310325,-3.24405 -9.143774,-3.05496 -19.792558,-4.81072 -26.385017,-11.844987 -3.300018,-3.521176 -5.061304,-13.56401 -5.061304,-13.56401"
       inkscape:path-effect="#path-effect5958"
       class="UnoptimicedTransforms" />
    <path
       style="fill:#000000;stroke:#000000;stroke-width:0.264583px;stroke-linecap:butt;stroke-linejoin:miter;stroke-opacity:1"
       d="m 191.79014,59.681522 c 0.0771,-0.02375 0.49138,1.071848 1.10198,2.870047 0,0 0,0 0,0 0.41451,1.136665 1.06801,3.067385 1.94734,4.584783 0,0 0,0 0,0 0.41413,0.730534 1.17613,1.331714 1.8133,2.14845 0.13165,0.168761 0.25508,0.344657 0.3664,0.531346 0.53801,0.907458 0.9673,1.821838 1.11993,2.811582 v 0 c 0.0676,0.47885 -0.002,0.940369 -0.10625,1.344284 l 0,0 c -0.10148,0.41289 -0.2599,0.802173 -0.49638,1.140566 l 0,0 c -0.86898,1.224711 -1.96141,2.016742 -2.6891,2.456573 l 0,0 0,0 0,0 c -0.30067,0.181503 -0.64503,0.288659 -0.83697,0.347498 l 0,0 c -0.15539,0.04811 -0.28341,0.08079 -0.37452,0.0992 l 0,0 c -0.0515,0.01042 -0.0925,0.01655 -0.12238,0.01856 l 0,0 c 0,0 0,0 0,0 -0.0346,-0.01293 -0.0536,-0.01147 -0.0588,-0.01054 -0.001,1.81e-4 -8.9e-4,1.11e-4 -8.9e-4,1.11e-4 0,0 -1.5e-4,2.9e-5 7.7e-4,-4.56e-4 0.005,-0.0025 0.0206,-0.013 0.0396,-0.0448 0,0 0,0 0,0 l 0,0 c 0.0244,-0.01711 0.0597,-0.03809 0.1052,-0.06302 l 0,0 c 0.0843,-0.04614 0.19428,-0.100854 0.34072,-0.174215 l 0,0 c 0.17027,-0.08561 0.50931,-0.242382 0.74205,-0.418295 l 0,0 0,0 0,0 c 0.66071,-0.492483 1.67258,-1.323608 2.4386,-2.494321 l 0,0 c 0.18396,-0.27767 0.30333,-0.611286 0.38772,-0.981249 l 0,0 c 0.0801,-0.374049 0.13618,-0.768564 0.0705,-1.131163 -0.14341,-0.878587 -0.55631,-1.711364 -1.07513,-2.596528 -0.0934,-0.16053 -0.20172,-0.314801 -0.32132,-0.466702 -0.57879,-0.735138 -1.36048,-1.376727 -1.84618,-2.231274 0,0 0,-1e-6 0,-1e-6 -0.91137,-1.637584 -1.48417,-3.558165 -1.83996,-4.743711 0,0 0,-1e-6 0,-1e-6 -0.50891,-1.833968 -0.78335,-2.972957 -0.70628,-2.996711 z"
       id="path5928"
       sodipodi:nodetypes="caaaaaac"
       transform="matrix(0.59342968,0,0,0.59927863,8.0976783,29.029046)"
       inkscape:original-d="m 191.7901,59.681374 c 0,0 1.46543,5.250753 2.79782,7.597775 0.56898,1.002273 1.58829,1.69606 2.1736,2.688886 0.49403,0.837983 0.9453,1.743272 1.09753,2.704055 0.0647,0.408529 0.007,0.835279 -0.0884,1.237723 -0.0885,0.37275 -0.22609,0.744472 -0.44205,1.060908 -0.66966,0.981222 -1.57772,1.813041 -2.56385,2.475447 -0.39642,0.266283 -1.31097,0.577802 -1.31097,0.577802"
       inkscape:path-effect="#path-effect5962"
       class="UnoptimicedTransforms" />
    <path
       style="fill:#000000;stroke:none;stroke-width:0.264583px;stroke-linecap:butt;stroke-linejoin:miter;stroke-opacity:1"
       d="m 195.38417,79.479314 c -0.01,-0.0212 0.002,-0.04911 0.0339,-0.08831 0,0 0,0 0,0 0.0272,-0.03356 0.0694,-0.07381 0.12434,-0.120266 l 0,0 c 0.10243,-0.08671 0.24296,-0.189829 0.41816,-0.318018 l 0,0 c 0.23119,-0.172081 0.63903,-0.434714 0.83648,-0.713587 0.14508,-0.18491 0.26443,-0.398546 0.36481,-0.645926 0.13801,-0.34013 0.22686,-0.713384 0.29399,-1.039363 -0.0299,-0.91152 0.0157,-1.574097 0.12835,-1.625252 0,0 0,0 0,0 0.01,-0.0023 0.01,-0.0021 0.01,-0.0021 0,0 5e-5,-2.69e-4 0.01,-5.83e-4 0,0 0,0 0,0 0.11892,0.02003 0.27043,0.673669 0.3933,1.644383 -0.0317,0.368806 -0.10954,0.797109 -0.2805,1.219455 -0.1226,0.302869 -0.28162,0.5742 -0.47526,0.80843 -0.34658,0.392011 -0.8019,0.596814 -1.07855,0.71118 l 0,0 c -0.20603,0.0884 -0.38342,0.146255 -0.514,0.175942 l 0,0 c -0.0714,0.01618 -0.1299,0.02423 -0.17382,0.02427 0,0 0,0 0,0 -0.0509,-3.14e-4 -0.0807,-0.0091 -0.0908,-0.03028 z"
       id="path5930"
       inkscape:path-effect="#path-effect5966"
       inkscape:original-d="m 195.3836,79.479573 c 0,0 1.22711,-0.555479 1.63556,-1.060905 0.41625,-0.515081 0.61386,-1.200961 0.70728,-1.856587 0.0772,-0.541508 -0.13262,-1.635564 -0.13262,-1.635564"
       class="UnoptimicedTransforms"
       transform="matrix(0.59342968,0,0,0.59927863,8.0976783,29.029046)"
       sodipodi:nodetypes="caac" />
    <path
       style="fill:#000000;stroke:#000000;stroke-width:0.264583px;stroke-linecap:butt;stroke-linejoin:miter;stroke-opacity:1"
       d="m 185.03917,70.461521 c -0.007,0.0123 -0.0311,0.01228 -0.0744,0.0037 0,0 0,0 0,0 -0.0364,-0.0075 -0.0857,-0.02203 -0.14739,-0.04243 0,0 0,0 0,0 l 0,0 c -0.11006,-0.03633 -0.25917,-0.09179 -0.44534,-0.154606 l 0,0 c -0.22845,-0.07412 -0.64732,-0.238375 -0.95147,-0.18479 l 0,0 c -0.90844,0.113892 -1.76564,0.645898 -2.77533,1.644818 -0.40698,0.416591 -0.80416,0.906121 -1.09977,1.450457 -0.22449,0.413369 -0.37814,0.835636 -0.44914,1.264766 -0.1212,0.628707 0.1106,1.31819 0.34399,1.877502 0.27493,0.590427 0.47393,1.014791 0.86727,1.206705 0.28116,0.165759 0.76457,0.131252 1.02295,0.129118 0.45086,-0.01037 0.71528,-0.03493 0.74559,0.005 0,0 0,0 0,0 0,0 0,0 0,0 0,0 0,0 0,0 0.002,0.0053 0.002,0.0054 0.002,0.0054 0,-7e-6 2.2e-4,-1.5e-5 6.9e-4,0.0057 0,0 0,0 0,0 0,0 0,0 0,0 0,0 0,0 0,0 -0.009,0.0493 -0.26095,0.16078 -0.71933,0.249275 -0.25604,0.05407 -0.75278,0.158362 -1.22408,-0.02698 -0.53905,-0.245204 -0.88827,-0.748193 -1.16613,-1.357155 -0.29254,-0.581677 -0.56923,-1.357578 -0.45169,-2.189308 0.0811,-0.500526 0.25212,-0.98772 0.5012,-1.453752 0.32885,-0.615284 0.76615,-1.143488 1.22101,-1.577601 1.05829,-1.04251 2.12402,-1.578205 3.14807,-1.62631 l 0,0 c 0.4689,-0.0097 0.87602,0.220854 1.08818,0.341486 l 0,0 c 0.17794,0.09762 0.31753,0.190573 0.40981,0.260916 l 0,0 c 0,0 0,0 0,0 0.0524,0.03998 0.0917,0.07422 0.11754,0.101616 0,0 0,0 0,0 0.0305,0.0327 0.0427,0.05412 0.0358,0.06644 z"
       id="path5932"
       inkscape:path-effect="#path-effect5970"
       inkscape:original-d="m 185.03976,70.461869 c 0,0 -1.05971,-0.622762 -1.63556,-0.574659 -1.12385,0.09388 -2.15911,0.843283 -2.9617,1.635564 -0.7843,0.774222 -1.45766,1.785681 -1.63556,2.873288 -0.11149,0.681595 0.10876,1.406163 0.39784,2.033405 0.22828,0.495313 0.52285,1.0505 1.0167,1.28193 0.56054,0.262684 1.85659,-0.04421 1.85659,-0.04421"
       class="UnoptimicedTransforms"
       transform="matrix(0.59342968,0,0,0.59927863,8.0976783,29.029046)"
       sodipodi:nodetypes="caaaaac" />
    <path
       class="UnoptimicedTransforms"
       style="fill:#000000;stroke:none;stroke-width:0.264583px;stroke-linecap:butt;stroke-linejoin:miter;stroke-opacity:1"
       d="m 182.34385,76.649766 c -0.0114,-0.0091 -0.0111,-0.03044 -9.9e-4,-0.06562 0,0 0,0 0,0 0.009,-0.02884 0.0247,-0.06617 0.0482,-0.111243 l 0,0 0,0 c 0.0418,-0.08033 0.10933,-0.189081 0.202,-0.314449 l 0,0 c 0.1123,-0.155948 0.32046,-0.437586 0.63726,-0.616049 l 0,0 0,0 c 1.00092,-0.545726 2.27049,-0.760164 4.01361,-0.666923 0.0974,0.0052 0.19385,0.01117 0.28914,0.01769 0.8372,0.05132 1.5895,0.266508 2.21885,0.590025 0,0 0,10e-7 0,10e-7 0.41243,0.172512 0.85249,0.400348 1.0211,0.884671 0.063,0.38312 -0.14278,0.652855 -0.2964,0.790661 -0.1939,0.195707 -0.43586,0.277575 -0.56635,0.319092 -0.10839,0.03665 -0.19933,0.05832 -0.26457,0.06804 -0.0662,0.02445 -0.12592,0.0066 -0.13679,-0.0029 0,0 0,0 0,0 0,0 0,0 0,0 0,0 0,0 0,0 0,0 0,0 0,0 -0.005,-0.0079 -0.004,-0.0082 -0.004,-0.0082 0,3e-6 -4.2e-4,3e-6 -0.002,-0.0091 0,0 0,0 0,0 0,0 0,0 0,0 0,0 0,0 0,0 0,0 0,-10e-7 0,-10e-7 0.003,-0.02107 0.0345,-0.06765 0.0942,-0.09624 0.0537,-0.04149 0.12267,-0.0879 0.21458,-0.151281 0.1086,-0.07661 0.31755,-0.204826 0.40094,-0.339804 0.0882,-0.152533 0.22009,-0.35893 0.14564,-0.447065 -0.05,-0.258232 -0.39151,-0.291178 -0.8355,-0.52987 0,0 0,0 0,0 -0.581,-0.258205 -1.26146,-0.426601 -2.02478,-0.470881 -0.0936,-0.0048 -0.18827,-0.0094 -0.28327,-0.01374 -1.73516,-0.07906 -2.80665,0.01904 -3.81281,0.425412 l 0,0 0,0 c -0.22467,0.08048 -0.47481,0.314549 -0.61766,0.433838 l 0,0 c -0.11748,0.09964 -0.20413,0.1749 -0.27807,0.232255 l 0,0 0,0 c -0.0395,0.03071 -0.0724,0.05375 -0.0983,0.06824 0,0 0,0 0,0 -0.0318,0.01722 -0.052,0.02254 -0.0634,0.01344 z"
       id="path5934"
       inkscape:path-effect="#path-effect5974"
       inkscape:original-d="m 182.34329,76.650489 c 0,0 0.56779,-0.735833 0.9725,-0.928293 1.27419,-0.605942 2.791,-0.614585 4.19942,-0.530453 0.72774,0.04347 1.46473,0.214643 2.12181,0.530453 0.35062,0.168515 0.81768,0.33432 0.9283,0.707271 0.0623,0.210005 -0.0808,0.450553 -0.22102,0.618863 -0.20704,0.248564 -0.83989,0.486249 -0.83989,0.486249"
       transform="matrix(0.59342968,0,0,0.59927863,8.0976783,29.029046)"
       sodipodi:nodetypes="caaaaac" />
    <path
       style="fill:#000000;stroke:#000000;stroke-width:0.264583px;stroke-linecap:butt;stroke-linejoin:miter;stroke-opacity:1"
       d="m 31.384856,64.361363 c -0.0042,0.0042 -0.01481,0.0015 -0.03242,-0.0078 -0.01514,-0.0081 -0.03526,-0.02123 -0.06023,-0.03907 0,0 0,0 0,0 -0.04777,-0.03412 -0.113527,-0.0858 -0.196791,-0.153699 l 0,0 c -0.149463,-0.121859 -0.355223,-0.296467 -0.617815,-0.513727 l 0,0 c -0.311891,-0.257532 -0.906722,-0.775183 -1.476492,-1.082792 l 0,0 -10e-7,-10e-7 0,0 c -1.080628,-0.588824 -2.357172,-1.033016 -4.124983,-1.40245 l 0,0 c -0.612029,-0.116944 -1.292782,-0.342707 -1.81042,-0.157687 l 0,0 c -0.597899,0.183746 -1.153656,0.623591 -1.501523,1.213463 l 1e-6,10e-7 -1e-6,0 0,0 c -1.446525,2.422259 -1.349637,5.185993 -1.502688,8.700488 l 0,0 c -0.03319,0.877256 0.03241,1.775475 0.25719,2.638965 0.02136,0.08487 0.04519,0.169333 0.07122,0.253517 0.393736,1.272988 1.256096,2.436211 1.686792,3.79722 0.430281,1.390198 0.360401,2.761881 0.775514,3.87967 0.429666,1.176858 0.986529,2.226033 1.694888,3.104514 0.712671,0.872911 1.393104,1.601501 2.259171,1.976169 0.801177,0.355339 1.663058,0.422399 2.41089,0.285626 0.710634,-0.121303 1.365376,-0.593242 1.86965,-0.979976 0.708354,-0.545636 1.192435,-1.166135 1.510375,-1.672516 0.362469,-0.915414 0.588296,-1.432021 0.64047,-1.450961 0.0041,1.6e-4 0.0041,4.19e-4 0.0041,4.17e-4 -7e-6,-2e-6 8.8e-5,-2.52e-4 0.0037,0.0019 0.03,0.04395 -0.117929,0.58602 -0.420046,1.553413 -0.290395,0.551868 -0.763158,1.239818 -1.495526,1.866412 -0.494977,0.426331 -1.177963,0.951629 -2.020343,1.14184 -0.831292,0.179859 -1.796405,0.134436 -2.716818,-0.247404 -0.999735,-0.42427 -1.78152,-1.197699 -2.514911,-2.090635 -0.771971,-0.929215 -1.381116,-2.032706 -1.841465,-3.260925 -0.472144,-1.279828 -0.420891,-2.677859 -0.815847,-3.900309 -0.416695,-1.322002 -1.278514,-2.474758 -1.695209,-3.79676 -0.02977,-0.09438 -0.05757,-0.189714 -0.08313,-0.286123 -0.243445,-0.945317 -0.313929,-1.911062 -0.273262,-2.84238 l 0,0 c 0.132308,-3.473928 0.118013,-6.387894 1.68003,-8.981289 l 0,0 2e-6,-1e-6 0,0 c 0.434723,-0.714805 1.115841,-1.224385 1.858013,-1.438803 l 0,0 c 0.762069,-0.194885 1.510941,0.05038 2.079568,0.195949 l 0,0 c 1.784298,0.420552 3.105982,0.942325 4.185455,1.60345 l 0,0 1e-6,0 0,0 c 0.610864,0.376262 1.15523,0.924223 1.450518,1.218277 l 0,0 c 0.241875,0.240193 0.431044,0.443691 0.55627,0.58733 l 0,0 c 0.07088,0.08131 0.123768,0.14628 0.158571,0.193887 0,0 0,0 0,0 0.01818,0.02487 0.03139,0.04496 0.03962,0.06017 0.0094,0.01766 0.01213,0.0284 0.0079,0.03262 z"
       id="path5936"
       sodipodi:nodetypes="caaaaaaaaaaaaac"
       transform="matrix(0.59342968,0,0,0.59927863,70.681938,28.879196)"
       inkscape:original-d="m 31.385147,64.361657 c 0,0 -1.429932,-1.442226 -2.298628,-1.944997 -1.27478,-0.737799 -2.717461,-1.183159 -4.155218,-1.50295 -0.635476,-0.141345 -1.320953,-0.362235 -1.944995,-0.176818 -0.683837,0.203184 -1.312809,0.714368 -1.679769,1.326134 -1.540259,2.567795 -1.469196,5.849058 -1.591359,8.840888 -0.03745,0.917061 0.03522,1.852135 0.265226,2.740673 0.370435,1.431021 1.322956,2.657264 1.768178,4.06681 0.398634,1.26205 0.336347,2.648742 0.79568,3.889989 0.421199,1.138199 0.999251,2.243753 1.768177,3.18272 0.662235,0.808682 1.426185,1.621969 2.387041,2.033402 0.789858,0.338213 1.721399,0.435434 2.563854,0.266515 0.724095,-0.145187 1.372151,-0.594817 1.944997,-1.060908 0.600275,-0.488409 1.117279,-1.098545 1.50295,-1.769464 0.264768,-0.460594 0.530453,-1.50295 0.530453,-1.50295"
       inkscape:path-effect="#path-effect5978"
       class="UnoptimicedTransforms" />
    <path
       style="fill:#000000;stroke:#000000;stroke-width:0.205709;stroke-linecap:butt;stroke-linejoin:miter;stroke-dasharray:none;stroke-opacity:1"
       d="m 26.555837,71.948998 c -0.0027,-0.0055 0.01991,-0.02217 0.06762,-0.05243 0,0 0,0 0,0 0.04091,-0.02587 0.100523,-0.06132 0.177615,-0.106733 l 0,0 0,0 c 0.125992,-0.07423 0.338875,-0.198209 0.566806,-0.341264 l 0,0 c 0.277282,-0.174885 0.837156,-0.502163 1.156851,-0.920131 l 0,0 c 0.363172,-0.472225 0.755935,-1.187531 0.740275,-1.983485 l 0,-2e-6 0,0 c -0.01286,-1.18703 -0.557845,-2.356347 -1.485028,-3.647568 l 0,0 c -0.737301,-1.000994 -1.723878,-2.348498 -3.084271,-2.62852 l 0,0 c -0.517741,-0.110385 -1.141519,0.01222 -1.509327,0.405634 l 0,0 c -1.231554,1.228815 -0.911439,3.114609 -1.168798,5.215655 l 0,0 0,2e-6 v 0 c -0.175981,1.65654 -0.664746,3.572067 -0.0041,5.100939 l 0,0 c 0.183374,0.436007 0.393429,0.86166 0.683292,1.213185 l 0,0 c 0.257752,0.279773 0.584042,0.555918 0.853619,0.454724 l 0,0 c 0.168624,0.0051 0.269532,-0.264365 0.350519,-0.523283 v 0 c 0.08459,-0.378827 0.07775,-0.789633 0.08424,-1.223345 v 0 l 0,-2e-6 0,0 c 0.0012,-0.376626 -0.0131,-0.795537 0.09629,-1.221995 l 0,0 c 0.02808,-0.144185 0.106445,-0.314445 0.269349,-0.459007 l 0,0 4e-6,-3e-6 0,0 c 0.194216,-0.128468 0.402439,-0.146422 0.56795,-0.09033 0.273184,0.0677 0.550386,0.220081 0.745655,0.482118 0.02449,0.03681 0.04661,0.07439 0.06648,0.112532 0.114938,0.220655 0.154312,0.459735 0.144176,0.680994 -0.02576,0.711416 -0.313563,1.350641 -0.576907,1.925005 -0.643533,1.463408 -1.52333,2.687073 -1.563676,4.095751 l 0,0 c -0.08208,0.641775 0.09579,1.311223 0.431913,1.857232 l 0,0 c 0.321363,0.493773 0.833061,0.899279 1.344898,0.83912 l 0,0 c 0.394636,0.0098 0.633536,-0.548025 0.902343,-1.014801 l 0,0 c 0.232563,-0.520044 0.554669,-1.15252 1.224704,-1.353261 l 0,0 c 0.505689,-0.07904 0.915105,0.194179 1.199705,0.426232 l 0,0 c 0.328814,0.210149 0.610043,0.455873 0.853196,0.374961 l 0,0 c 0.983042,-0.191406 1.81829,-0.985438 2.000438,-1.870808 0.120238,-0.471155 -0.161784,-0.994604 -0.437686,-1.452571 l 0,0 c -0.339159,-0.53093 -0.717246,-1.009391 -0.899142,-1.634438 l 0,0 C 30.243,74.189065 30.293398,73.763943 30.302795,73.411016 l 0,0 c -0.0045,-0.360347 -0.02464,-0.703944 -0.230851,-0.893897 l 0,0 c -0.302387,-0.312718 -0.829033,-0.385143 -1.179635,-0.208915 l 0,0 C 28.143907,72.646229 27.958632,73.776 27.80532,74.467819 l 0,0 c -0.219687,0.997909 0.318565,1.935735 0.179047,2.601007 l 0,0 0,0 0,0 c -0.06572,0.296601 -0.244843,0.573836 -0.335339,0.718055 l 0,0 c -0.07625,0.122329 -0.144386,0.219938 -0.192775,0.284844 l 0,0 c 0,0 0,0 0,0 -0.02801,0.03758 -0.05092,0.06624 -0.06824,0.08603 l 0,0 c 0,0 0,0 0,0 -0.02301,0.01563 -0.03431,0.02829 -0.0376,0.03235 0,0 0,10e-7 0,10e-7 -7.21e-4,8.93e-4 -6.4e-4,7.48e-4 -6.4e-4,7.48e-4 0,0 -1.03e-4,1.3e-4 4.56e-4,-8.72e-4 0,0 0,0 0,0 0.0025,-0.0046 0.01001,-0.01981 0.01526,-0.04723 0,0 0,0 0,0 l 0,0 c 0.01121,-0.02367 0.02792,-0.05602 0.04965,-0.09704 0,0 0,0 0,0 l 0,0 c 0.03354,-0.06333 0.09815,-0.182491 0.158819,-0.301318 l 0,0 c 0.07581,-0.14939 0.235027,-0.438899 0.276076,-0.701188 l -10e-7,0 10e-7,-10e-7 0,0 c 0.104908,-0.616339 -0.467434,-1.455721 -0.274889,-2.619285 l 0,0 c 0.111692,-0.697379 0.28731,-1.88023 1.182703,-2.379767 l 0,0 c 0.47154,-0.242433 1.122519,-0.172359 1.543991,0.245026 l 0,0 c 0.291431,0.311879 0.355062,0.738222 0.342633,1.125479 0.0016,0.379226 -0.04613,0.774956 0.05539,1.094947 0.153087,0.536645 0.520996,0.972331 0.877029,1.527174 l 0,0 c 0.315399,0.465538 0.624132,1.076413 0.509769,1.740955 -0.22072,1.064318 -1.151797,1.985533 -2.311974,2.214633 l 0,0 c -0.494576,0.06398 -0.895687,-0.202388 -1.193983,-0.440043 l 0,0 c -0.315373,-0.19632 -0.610181,-0.441937 -0.838558,-0.347549 -0.419809,0.05682 -0.630018,0.609542 -0.915366,1.121563 l 0,0 c -0.213563,0.494333 -0.566638,1.138399 -1.270001,1.276727 l 0,0 c -0.755558,0.03766 -1.42297,-0.437059 -1.797583,-1.053046 l 0,0 c -0.396364,-0.62199 -0.60207,-1.388877 -0.51105,-2.1518 l 0,0 c 0.07442,-1.584926 0.965319,-2.87053 1.595397,-4.259508 0.253395,-0.582942 0.526326,-1.15979 0.532506,-1.734421 -6.15e-4,-0.162113 -0.01982,-0.320076 -0.08327,-0.437351 -0.01097,-0.02028 -0.02326,-0.03933 -0.037,-0.05698 -0.08633,-0.139143 -0.271146,-0.226946 -0.468285,-0.287425 -0.06995,-0.0081 -0.131766,-0.01995 -0.129122,0.0016 l 0,0 0,0 0,0 c -0.03721,0.01217 -0.05778,0.09461 -0.09526,0.195224 -0.09203,0.325649 -0.07266,0.704066 -0.08046,1.098775 l 0,0 0,3e-6 v 0 c -0.0035,0.426151 -0.0012,0.870735 -0.09746,1.322954 l 0,0 c -0.05391,0.360926 -0.282108,0.756028 -0.726013,0.899503 l 0,0 c -0.575016,0.08958 -1.061497,-0.245004 -1.342647,-0.62645 l 0,0 C 21.98437,74.102486 21.751918,73.635945 21.564601,73.17702 l 0,0 c -0.696991,-1.74895 -0.205106,-3.730995 -0.0041,-5.339641 0,0 10e-7,-2e-6 10e-7,-2e-6 l 0,0 c 0.21837,-2.019693 -0.02758,-4.013307 1.327863,-5.451891 l 0,0 c 0.505996,-0.507644 1.258332,-0.654932 1.895209,-0.502242 l 0,0 c 1.542274,0.381448 2.561626,1.788027 3.270863,2.818738 l 0,0 c 0.935977,1.32564 1.473109,2.584036 1.465572,3.842416 l 0,0 0,10e-7 c -0.012,0.88234 -0.448339,1.624131 -0.848511,2.101954 l 0,0 c -0.37594,0.447553 -0.952492,0.746673 -1.243663,0.904575 l 0,10e-7 c -0.245741,0.134068 -0.455147,0.234339 -0.596582,0.297441 l 0,0 0,0 c -0.08206,0.03661 -0.146366,0.06298 -0.192025,0.07974 0,0 -10e-7,0 -10e-7,0 -0.05325,0.01946 -0.08064,0.02645 -0.08338,0.02089 z"
       id="path5938"
       sodipodi:nodetypes="caaaaaaaaaccaaaaaaaac"
       transform="matrix(0.59342968,0,0,0.59927863,70.681938,29.196316)"
       inkscape:original-d="m 26.555387,71.949211 c 0,0 1.530161,-0.723868 2.042721,-1.361815 0.45759,-0.569529 0.795993,-1.312139 0.794393,-2.042721 -0.0029,-1.341699 -0.697122,-2.652013 -1.4753,-3.744992 -0.809111,-1.136425 -1.817389,-2.413732 -3.177567,-2.723629 -0.572578,-0.130454 -1.293441,0.03236 -1.702268,0.453938 -1.271186,1.31082 -1.038894,3.519856 -1.248331,5.333775 -0.199588,1.728612 -0.665906,3.61265 0,5.22029 0.327559,0.790799 0.980844,2.004393 1.815753,1.815753 1.213718,-0.274228 0.04781,-3.845218 1.24833,-3.518022 2.304805,0.628161 -1.270274,4.648923 -1.361814,7.036041 -0.161502,1.31054 0.737879,3.051304 2.042722,2.950599 1.064037,-0.124357 1.113686,-2.136621 2.156207,-2.383176 0.710971,-0.168144 1.325806,0.935054 2.042721,0.794393 0.971534,-0.190619 1.955861,-1.073145 2.156206,-2.042721 0.233188,-1.128523 -1.042524,-2.070322 -1.361813,-3.177569 -0.20161,-0.699152 0.17186,-1.639493 -0.340455,-2.156206 -0.324016,-0.326798 -0.951722,-0.435798 -1.361813,-0.22697 -0.753762,0.383834 -0.976381,1.438803 -1.134846,2.269691 -0.163611,0.857869 0.390579,1.752277 0.226968,2.610146 -0.07923,0.415444 -0.567423,1.134846 -0.567423,1.134846"
       inkscape:path-effect="#path-effect5982"
       class="UnoptimicedTransforms" />
    <path
       style="fill:#000000;stroke:#000000;stroke-width:0.490624;stroke-linecap:butt;stroke-linejoin:miter;stroke-dasharray:none;stroke-opacity:1"
       d="m 29.610756,88.511203 c 0.04499,-0.01986 0.410358,0.694095 1.004464,1.943948 0,0 0,10e-7 0,10e-7 0.339434,0.758215 0.943376,2.082551 1.199892,3.396527 0.457887,2.365841 0.713624,5.07949 0.669955,8.265491 -0.04243,3.09554 -0.36159,6.04941 -0.66877,8.32512 0,0 0,0 0,0 -0.177341,1.31161 -0.595007,2.67913 -0.835192,3.47276 -0.412093,1.28824 -0.674445,2.03376 -0.726496,2.04036 0,0 0,0 0,0 0,0 0,0 0,0 0,0 0,0 0,0 0,0 0,0 0,0 0,0 0,0 0,0 0,0 0,0 0,0 0,0 0,0 0,0 -0.002,-3e-4 -0.002,-3.7e-4 -0.002,-3.7e-4 5e-6,0 -1.7e-5,7e-5 -0.0018,-7.8e-4 0,0 0,0 0,0 0,0 0,0 0,0 0,0 0,0 0,0 0,0 0,0 0,0 0,0 0,0 0,0 0,0 0,0 0,0 0,0 0,0 0,0 -0.04023,-0.0343 0.13597,-0.80538 0.47398,-2.11111 0.188937,-0.7827 0.559196,-2.20424 0.692554,-3.44928 -10e-7,0 0,0 0,0 0.243982,-2.26399 0.525427,-5.22914 0.568478,-8.28364 0.04465,-3.168054 -0.172316,-5.826753 -0.567293,-8.186967 -0.204075,-1.236144 -0.759463,-2.601197 -1.049169,-3.362997 0,0 0,0 0,0 -0.522155,-1.278298 -0.803559,-2.029201 -0.758575,-2.049063 z"
       id="path5940"
       sodipodi:nodetypes="caac"
       transform="matrix(0.59342968,0,0,0.59927863,70.681938,28.879196)"
       inkscape:original-d="m 29.610663,88.511008 c 0,0 1.666383,3.494029 2.006143,5.376463 0.97872,5.422587 0.66392,11.060549 0,16.530609 -0.229031,1.887 -1.364176,5.53696 -1.364176,5.53696"
       inkscape:path-effect="#path-effect5986"
       class="UnoptimicedTransforms" />
    <path
       style="fill:none;stroke:#000000;stroke-width:0.505782;stroke-linecap:butt;stroke-linejoin:miter;stroke-dasharray:none;stroke-opacity:1"
       d="m 79.539298,102.07147 c 0,0 2.55931,-0.40907 3.71438,-0.96178 1.21073,-0.57937 2.04364,-1.791777 3.23816,-2.404477 0.564,-0.28928 1.80959,-0.57708 1.80959,-0.57708 0,0 0.84172,3.822337 1.80955,5.482197 1.5961,2.73736 3.97985,4.969 6.38109,7.02108 1.73423,1.48201 3.594462,2.92629 5.714452,3.75099 3.18033,1.23722 6.69531,1.87078 10.09546,1.63505 1.9537,-0.13544 3.80632,-0.98337 5.6192,-1.73123 1.65625,-0.68327 3.60052,-1.1264 4.76202,-2.50066 0.78207,-0.92536 1.04037,-2.2503 1.14288,-3.46244 0.16121,-1.90646 -0.40363,-3.8168 -0.85716,-5.67458 -0.23312,-0.95486 -0.95241,-2.789187 -0.95241,-2.789187 0,0 2.88991,1.183037 4.38106,1.635057 1.8734,0.56788 3.89378,0.6245 5.71442,1.34651 1.66769,0.6613 4.66677,2.69299 4.66677,2.69299"
       id="path5942"
       sodipodi:nodetypes="caacaaaaaaaacaac" />
    <path
       style="fill:#000000;stroke:#000000;stroke-width:0.529642;stroke-linecap:butt;stroke-linejoin:miter;stroke-dasharray:none;stroke-opacity:1"
       d="m 86.183884,116.67725 c 0.110362,0.002 0.134073,3.3978 0.05317,7.58533 -0.0051,0.26206 -0.01042,0.52102 -0.01603,0.7762 0,0 0,0 0,0 -0.551743,3.78578 -1.058143,6.72662 -1.160578,6.71196 -0.102423,-0.0147 0.23576,-2.97494 0.765318,-6.74392 0,0 0,0 0,0 0.0042,-0.25456 0.0088,-0.5128 0.01378,-0.7741 0.07982,-4.1702 0.233975,-7.55759 0.344338,-7.55547 z"
       id="path5944"
       transform="matrix(0.59342968,0,0,0.65082941,70.681938,22.094956)"
       sodipodi:nodetypes="ccc"
       inkscape:original-d="m 86.183884,116.67725 -0.160493,8.34555 -0.962947,6.72793"
       inkscape:path-effect="#path-effect5990"
       class="UnoptimicedTransforms" />
    <path
       style="opacity:0.720149;fill:url(#linearGradient5992);fill-opacity:1;stroke:none;stroke-width:0.182863px;stroke-linecap:butt;stroke-linejoin:miter;stroke-opacity:1"
       d="m 120.75853,77.529673 -1.9118,-1.46378 -2.28586,0.0396 -5.63584,2.46758 -0.7094,1.3134 -0.43829,1.92891 1.58122,0.4591 2.32527,-1.99001 3.86233,-0.6368 1.41879,-0.19899 1.61588,0.59699 1.85235,-0.31839 2.28586,1.47259 1.02471,0.0399 -1.30059,-2.26863 -0.67,-1.55219 -1.49761,-0.67659 c -0.74766,0.18509 -0.80536,0.49974 -1.51702,0.78726 z"
       id="path5946"
       sodipodi:nodetypes="cccccccccccccccccc" />
    <path
       id="path7527"
       style="fill:none;fill-opacity:1;stroke:#ffffff;stroke-width:0.413519;stroke-dasharray:none;stroke-dashoffset:0;stroke-opacity:1;paint-order:stroke markers fill"
       d="m 88.998828,33.432913 c -2.80569,0.006 -5.56823,0.13024 -8.26668,0.36941 -4.27569,0.37911 -10.2117,2.29437 -11.45877,7.74425 -3.19345,13.95551 -4.59508,33.76208 -1.16628,49.57447 1.25907,5.80635 3.98382,11.795707 7.96405,14.714567 15.41793,11.30647 35.153652,15.303 50.691802,14.45845 4.13694,-0.22468 8.4344,-3.24205 11.07139,-7.4854 5.4509,-8.77143 12.79395,-25.136947 15.14916,-43.893017 0.7155,-5.69763 -2.58994,-12.04636 -6.21461,-15.23232 -16.39295,-14.40875 -38.13016,-20.28751 -57.770062,-20.25041 z"
       inkscape:export-filename="prueba1.png"
       inkscape:export-xdpi="93.902153"
       inkscape:export-ydpi="93.902153" />
    <g
       aria-label="           MRG"
       transform="matrix(0.73944245,-0.20657237,0.70581285,1.5442169,-340.49207,-156.16506)"
       id="text9052"
       style="font-size:7.52683px;font-family:Century;-inkscape-font-specification:'Century, Normal';stroke-width:3.13619;paint-order:stroke markers fill">
      <path
         d="m 381.26889,212.20721 1.20907,1.34471 -2.1028,3.94632 4.18252,-1.63331 1.43702,1.53845 -0.20448,0.17617 -0.30165,-0.33549 c -0.10629,-0.11821 -0.19549,-0.18334 -0.26762,-0.19541 -0.0705,-0.0103 -0.14846,0.0214 -0.23389,0.095 l -6.76613,5.53083 c -0.0636,0.0548 -0.0906,0.12163 -0.081,0.20047 0.01,0.0788 0.0684,0.17831 0.17627,0.2983 l 0.27714,0.30822 -0.20448,0.17616 -1.93875,-1.98146 0.20449,-0.17616 0.30901,0.34368 c 0.0883,0.0982 0.17186,0.15526 0.25073,0.17123 0.0807,0.0144 0.15009,-0.003 0.20825,-0.0537 l 7.07776,-5.75662 -5.02704,1.96397 -0.16676,-0.18548 2.60262,-4.59788 -5.85054,5.27528 c -0.17449,0.15032 -0.69659,0.52822 -0.77609,0.80794 -0.0824,0.29007 0.14885,0.5624 0.33264,0.82358 l -0.52234,0.30809 -0.77593,-2.16883 0.45211,-0.22489 c 0.29502,0.75886 0.1212,0.79867 0.88193,0.0918 0.93656,-0.87776 3.91766,-3.34693 5.79078,-5.10246 0.0691,-0.0594 0.10021,-0.12347 0.0935,-0.19192 -0.004,-0.0701 -0.0587,-0.16229 -0.16184,-0.27685 l -0.30902,-0.34368 z"
         id="path2126"
         sodipodi:nodetypes="ccccccscccssccccscccccccacccccccccc"
         style="stroke-width:3.09995" />
      <path
         d="m 385.58558,217.01022 2.09996,1.86394 c 0.40679,0.36107 0.63983,0.73336 0.69912,1.11687 0.0611,0.38513 -0.0417,0.72795 -0.30845,1.02847 -0.15939,0.17958 -0.3466,0.30007 -0.56163,0.36146 -0.21157,0.0612 -0.43905,0.0592 -0.68245,-0.006 -0.23994,-0.0655 -0.55575,-0.23938 -0.94744,-0.52154 0.1986,0.30405 0.408,0.57125 0.44515,0.72871 0.0388,0.15563 0.0387,0.31444 -2.7e-4,0.47643 -0.0355,0.16179 -2.50998,2.6882 -2.73069,3.09185 -0.15809,0.28884 -0.24503,0.50489 -0.2608,0.64815 -0.0125,0.11009 0.009,0.18953 0.0637,0.23832 0.0568,0.0504 0.14562,0.0555 0.26646,0.0154 0.12429,-0.0404 0.28546,-0.16107 0.4835,-0.36201 l 0.1869,0.1659 c -0.58781,0.59212 -1.35606,0.68264 -1.78119,0.30529 -0.13377,-0.11873 -0.38708,-0.26616 -0.42585,-0.42179 -0.0369,-0.154 -0.0216,-0.31893 0.046,-0.49478 0.0493,-0.13311 1.92782,-2.12431 2.25266,-2.58622 0.18883,-0.26811 1.12384,-1.04988 1.15445,-1.20617 0.0325,-0.15467 0.0477,-0.30254 -0.0234,-0.47707 -0.0711,-0.17453 -0.0622,-0.34634 -0.23808,-0.50248 l -0.33259,-0.2952 -4.94337,3.94031 c -0.0602,0.0678 -0.0851,0.1309 -0.0746,0.18929 0.0131,0.0738 0.0663,0.15222 0.15979,0.2352 l 0.39031,0.34644 -0.18298,0.20614 -2.05025,-1.47387 0.2025,-0.23982 0.37903,0.38743 c 0.0788,0.0805 0.16754,0.11759 0.23876,0.11856 0.073,0.003 0.13641,-0.0263 0.19008,-0.0868 l 6.57158,-5.79445 c 0.0618,-0.0696 0.0871,-0.14056 0.0758,-0.21278 -0.0113,-0.0722 -0.06,-0.14656 -0.14605,-0.22301 l -0.18222,-0.39325 z m -0.41937,2.96938 0.48101,0.42694 c 0.32251,0.28626 0.62814,0.44943 0.9169,0.48952 0.29221,0.0399 0.57657,-0.096 0.85307,-0.40746 0.1903,-0.21439 0.30593,-0.4148 0.3469,-0.60121 0.0428,-0.18478 0.0286,-0.34968 -0.0425,-0.49471 -0.0711,-0.14503 -0.27068,-0.36311 -0.59868,-0.65425 -0.21623,-0.19192 -0.36382,-0.29508 -0.44278,-0.30947 -0.0773,-0.0162 -0.14852,0.0123 -0.21358,0.0856 z"
         id="path2128"
         sodipodi:nodetypes="cscscccccccscccsccccsscccsccccscccsscccscscssccc" />
      <path
         d="m 391.72481,222.95292 0.64566,-0.2988 0.15719,0.16768 -1.73245,2.11539 -0.15249,-0.16266 c 0.40688,-0.70795 0.42044,-1.03919 0.49524,-1.46992 0.0947,-0.54831 0.23798,-1.20069 -0.0248,-1.48096 -0.20177,-0.21521 -0.45745,-0.32447 -0.76706,-0.32777 -0.30953,-0.004 -0.65748,0.11602 -1.04364,0.35798 -0.38459,0.24361 -0.95842,0.84475 -1.39401,1.27397 -0.60344,0.59461 -1.26026,1.18677 -1.68748,1.80087 -0.27939,0.4016 -0.5828,0.85377 -0.56346,1.2185 0.004,0.40791 -0.0655,0.99952 1.17184,0.90273 0.35161,-0.0638 1.22518,-0.61242 1.49008,-0.97222 l 0.31037,-0.42156 c 0.16122,-0.1904 0.0686,-0.35871 -0.0429,-0.50931 l -0.29327,-0.31281 0.33407,-0.295 1.71708,1.64707 -0.21584,0.24 -0.19708,-0.2102 c -0.0876,-0.0934 -0.17071,-0.13729 -0.24937,-0.13163 -0.0767,0.004 -0.15299,0.0476 -0.22898,0.13194 l -1.48373,1.75978 -0.67624,-0.18657 c 0.22135,-0.35682 0.29581,-0.28903 0.37738,-0.71383 -0.37015,0.15602 -0.95773,0.32506 -1.24785,0.29328 -0.28652,-0.0323 -0.87359,-0.0647 -1.13027,-0.2069 -1.29997,-0.68138 -0.71056,-1.49969 -0.1432,-2.37817 0.28548,-0.59563 1.34542,-1.54318 2.17596,-2.29093 0.42751,-0.38489 0.93404,-0.88011 1.43925,-1.12495 0.5052,-0.24484 0.98959,-0.35068 1.45315,-0.31752 0.46511,0.0349 0.82673,0.18989 1.08481,0.46514 0.14703,0.15682 0.25412,0.34269 0.3213,0.55764 0.0708,0.21432 0.10431,0.50758 0.10056,0.87974 z"
         id="path2130"
         sodipodi:nodetypes="ccccccsscaaccsccccccsccccccccascsccc"
         style="stroke-width:3.38765"
         inkscape:transform-center-x="-0.053950161"
         inkscape:transform-center-y="0.48555145" />
    </g>
  </g>
</svg>
